<mxfile host="Electron" agent="Mozilla/5.0 (Windows NT 10.0; Win64; x64) AppleWebKit/537.36 (KHTML, like Gecko) draw.io/28.1.2 Chrome/138.0.7204.243 Electron/37.4.0 Safari/537.36" version="28.1.2">
  <diagram name="Страница — 1" id="Ln23cz7dU80wL7ofJt6s">
    <mxGraphModel dx="2369" dy="1385" grid="1" gridSize="10" guides="1" tooltips="1" connect="1" arrows="1" fold="1" page="1" pageScale="2" pageWidth="827" pageHeight="1169" math="0" shadow="0">
      <root>
        <mxCell id="0" />
        <mxCell id="1" parent="0" />
        <mxCell id="JlKuH1uDhWd5byMlu2DG-3" value="Сайт-агрегатор" style="html=1;whiteSpace=wrap;" vertex="1" parent="1">
          <mxGeometry x="310" y="61" width="90" height="90" as="geometry" />
        </mxCell>
        <mxCell id="JlKuH1uDhWd5byMlu2DG-4" value="&lt;span style=&quot;font-family: &amp;quot;YS Text&amp;quot;, sans-serif; text-align: start; white-space: pre-wrap;&quot;&gt;&lt;font style=&quot;color: rgb(0, 0, 0);&quot;&gt;Банк-эквайер&lt;/font&gt;&lt;/span&gt;" style="shape=umlActor;verticalLabelPosition=bottom;verticalAlign=top;html=1;" vertex="1" parent="1">
          <mxGeometry x="950" y="61" width="30" height="60" as="geometry" />
        </mxCell>
        <mxCell id="JlKuH1uDhWd5byMlu2DG-7" value="API авиакомпани &quot;Добролет&quot;" style="html=1;whiteSpace=wrap;" vertex="1" parent="1">
          <mxGeometry x="424" y="61" width="90" height="90" as="geometry" />
        </mxCell>
        <mxCell id="JlKuH1uDhWd5byMlu2DG-8" value="API авиакомпани &quot;Чистое небо&quot;" style="html=1;whiteSpace=wrap;" vertex="1" parent="1">
          <mxGeometry x="550" y="61" width="90" height="91" as="geometry" />
        </mxCell>
        <mxCell id="JlKuH1uDhWd5byMlu2DG-9" value="API авиакомпани &quot;Авионика&quot;" style="html=1;whiteSpace=wrap;" vertex="1" parent="1">
          <mxGeometry x="670" y="61" width="90" height="90" as="geometry" />
        </mxCell>
        <mxCell id="JlKuH1uDhWd5byMlu2DG-10" value="&lt;p&gt;&lt;span style=&quot;text-align: start; white-space-collapse: preserve;&quot;&gt;&lt;font face=&quot;Helvetica&quot;&gt;API платежного сервиса «Лёгкие платежи»&lt;/font&gt;&lt;/span&gt;&lt;/p&gt;" style="html=1;whiteSpace=wrap;labelBackgroundColor=default;fontColor=default;fontSize=11;" vertex="1" parent="1">
          <mxGeometry x="790" y="60" width="90" height="91" as="geometry" />
        </mxCell>
        <mxCell id="JlKuH1uDhWd5byMlu2DG-12" value="&lt;span style=&quot;font-family: &amp;quot;YS Text&amp;quot;, sans-serif; text-align: start; white-space: pre-wrap;&quot;&gt;&lt;font style=&quot;color: rgb(0, 0, 0);&quot;&gt;Банк-эмитент&lt;/font&gt;&lt;/span&gt;" style="shape=umlActor;verticalLabelPosition=bottom;verticalAlign=top;html=1;" vertex="1" parent="1">
          <mxGeometry x="1070" y="61" width="30" height="60" as="geometry" />
        </mxCell>
        <mxCell id="JlKuH1uDhWd5byMlu2DG-18" value="" style="endArrow=none;dashed=1;html=1;rounded=0;" edge="1" parent="1">
          <mxGeometry width="50" height="50" relative="1" as="geometry">
            <mxPoint x="160" y="1040" as="sourcePoint" />
            <mxPoint x="160" y="160" as="targetPoint" />
          </mxGeometry>
        </mxCell>
        <mxCell id="JlKuH1uDhWd5byMlu2DG-19" value="Клиент" style="shape=umlActor;verticalLabelPosition=bottom;verticalAlign=top;html=1;" vertex="1" parent="1">
          <mxGeometry x="145" y="76" width="30" height="60" as="geometry" />
        </mxCell>
        <mxCell id="JlKuH1uDhWd5byMlu2DG-21" value="" style="endArrow=none;dashed=1;html=1;rounded=0;" edge="1" parent="1">
          <mxGeometry width="50" height="50" relative="1" as="geometry">
            <mxPoint x="964" y="1040" as="sourcePoint" />
            <mxPoint x="964" y="161" as="targetPoint" />
          </mxGeometry>
        </mxCell>
        <mxCell id="JlKuH1uDhWd5byMlu2DG-22" value="" style="endArrow=none;dashed=1;html=1;rounded=0;" edge="1" parent="1">
          <mxGeometry width="50" height="50" relative="1" as="geometry">
            <mxPoint x="1086" y="1040" as="sourcePoint" />
            <mxPoint x="1086" y="161" as="targetPoint" />
          </mxGeometry>
        </mxCell>
        <mxCell id="JlKuH1uDhWd5byMlu2DG-23" value="" style="endArrow=none;dashed=1;html=1;rounded=0;" edge="1" parent="1">
          <mxGeometry width="50" height="50" relative="1" as="geometry">
            <mxPoint x="355" y="1040" as="sourcePoint" />
            <mxPoint x="354.63" y="160" as="targetPoint" />
          </mxGeometry>
        </mxCell>
        <mxCell id="JlKuH1uDhWd5byMlu2DG-24" value="" style="endArrow=none;dashed=1;html=1;rounded=0;" edge="1" parent="1">
          <mxGeometry width="50" height="50" relative="1" as="geometry">
            <mxPoint x="468" y="1040" as="sourcePoint" />
            <mxPoint x="470" y="160" as="targetPoint" />
          </mxGeometry>
        </mxCell>
        <mxCell id="JlKuH1uDhWd5byMlu2DG-25" value="" style="endArrow=none;dashed=1;html=1;rounded=0;" edge="1" parent="1">
          <mxGeometry width="50" height="50" relative="1" as="geometry">
            <mxPoint x="590" y="1040" as="sourcePoint" />
            <mxPoint x="590" y="160" as="targetPoint" />
          </mxGeometry>
        </mxCell>
        <mxCell id="JlKuH1uDhWd5byMlu2DG-26" value="" style="endArrow=none;dashed=1;html=1;rounded=0;" edge="1" parent="1">
          <mxGeometry width="50" height="50" relative="1" as="geometry">
            <mxPoint x="710" y="1040" as="sourcePoint" />
            <mxPoint x="710" y="160" as="targetPoint" />
          </mxGeometry>
        </mxCell>
        <mxCell id="JlKuH1uDhWd5byMlu2DG-27" value="" style="endArrow=none;dashed=1;html=1;rounded=0;" edge="1" parent="1" source="JlKuH1uDhWd5byMlu2DG-97">
          <mxGeometry width="50" height="50" relative="1" as="geometry">
            <mxPoint x="830" y="1120" as="sourcePoint" />
            <mxPoint x="830" y="160" as="targetPoint" />
          </mxGeometry>
        </mxCell>
        <mxCell id="JlKuH1uDhWd5byMlu2DG-29" value="" style="html=1;points=[[0,0,0,0,5],[0,1,0,0,-5],[1,0,0,0,5],[1,1,0,0,-5]];perimeter=orthogonalPerimeter;outlineConnect=0;targetShapes=umlLifeline;portConstraint=eastwest;newEdgeStyle={&quot;curved&quot;:0,&quot;rounded&quot;:0};" vertex="1" parent="1">
          <mxGeometry x="350" y="180" width="20" height="800" as="geometry" />
        </mxCell>
        <mxCell id="JlKuH1uDhWd5byMlu2DG-30" value="1. Войти на сайт" style="html=1;verticalAlign=bottom;endArrow=block;curved=0;rounded=0;entryX=0;entryY=0;entryDx=0;entryDy=5;" edge="1" target="JlKuH1uDhWd5byMlu2DG-29" parent="1">
          <mxGeometry x="-0.0585" y="-4" relative="1" as="geometry">
            <mxPoint x="161" y="186" as="sourcePoint" />
            <mxPoint as="offset" />
          </mxGeometry>
        </mxCell>
        <mxCell id="JlKuH1uDhWd5byMlu2DG-31" value="&lt;span style=&quot;white-space: pre-line;&quot;&gt;&lt;font face=&quot;Helvetica&quot; style=&quot;font-size: 12px; color: rgb(0, 0, 0);&quot;&gt;Авиабилеты, подходящие&lt;br/&gt;&amp;nbsp;под запрос поиска&lt;/font&gt;&lt;/span&gt;" style="html=1;verticalAlign=bottom;endArrow=open;dashed=1;endSize=8;curved=0;rounded=0;align=center;" edge="1" parent="1">
          <mxGeometry x="0.2632" y="20" relative="1" as="geometry">
            <mxPoint x="160" y="490" as="targetPoint" />
            <mxPoint x="350" y="490" as="sourcePoint" />
            <mxPoint as="offset" />
          </mxGeometry>
        </mxCell>
        <mxCell id="JlKuH1uDhWd5byMlu2DG-33" value="" style="html=1;points=[[0,0,0,0,5],[0,1,0,0,-5],[1,0,0,0,5],[1,1,0,0,-5]];perimeter=orthogonalPerimeter;outlineConnect=0;targetShapes=umlLifeline;portConstraint=eastwest;newEdgeStyle={&quot;curved&quot;:0,&quot;rounded&quot;:0};" vertex="1" parent="1">
          <mxGeometry x="360" y="230" width="20" height="219" as="geometry" />
        </mxCell>
        <mxCell id="JlKuH1uDhWd5byMlu2DG-35" value="" style="html=1;points=[[0,0,0,0,5],[0,1,0,0,-5],[1,0,0,0,5],[1,1,0,0,-5]];perimeter=orthogonalPerimeter;outlineConnect=0;targetShapes=umlLifeline;portConstraint=eastwest;newEdgeStyle={&quot;curved&quot;:0,&quot;rounded&quot;:0};" vertex="1" parent="1">
          <mxGeometry x="464" y="299" width="10" height="40" as="geometry" />
        </mxCell>
        <mxCell id="JlKuH1uDhWd5byMlu2DG-36" value="" style="html=1;verticalAlign=bottom;endArrow=open;curved=0;rounded=0;entryX=0;entryY=0;entryDx=0;entryDy=5;endFill=0;" edge="1" target="JlKuH1uDhWd5byMlu2DG-35" parent="1" source="JlKuH1uDhWd5byMlu2DG-33">
          <mxGeometry x="0.1905" y="5" relative="1" as="geometry">
            <mxPoint x="394" y="304" as="sourcePoint" />
            <mxPoint as="offset" />
          </mxGeometry>
        </mxCell>
        <mxCell id="JlKuH1uDhWd5byMlu2DG-82" value="&lt;font style=&quot;font-size: 8px;&quot;&gt;GET&lt;/font&gt;&lt;div&gt;&lt;font style=&quot;font-size: 8px;&quot;&gt;3.1 получить &lt;br&gt;данные&lt;/font&gt;&lt;/div&gt;" style="edgeLabel;html=1;align=center;verticalAlign=middle;resizable=0;points=[];" vertex="1" connectable="0" parent="JlKuH1uDhWd5byMlu2DG-36">
          <mxGeometry x="-0.0281" y="2" relative="1" as="geometry">
            <mxPoint y="-12" as="offset" />
          </mxGeometry>
        </mxCell>
        <mxCell id="JlKuH1uDhWd5byMlu2DG-37" value="ответ" style="html=1;verticalAlign=bottom;endArrow=open;dashed=1;endSize=8;curved=0;rounded=0;exitX=0;exitY=1;exitDx=0;exitDy=-5;" edge="1" source="JlKuH1uDhWd5byMlu2DG-35" parent="1" target="JlKuH1uDhWd5byMlu2DG-33">
          <mxGeometry relative="1" as="geometry">
            <mxPoint x="394" y="374" as="targetPoint" />
          </mxGeometry>
        </mxCell>
        <mxCell id="JlKuH1uDhWd5byMlu2DG-41" value="" style="html=1;verticalAlign=bottom;endArrow=open;curved=0;rounded=0;entryX=0;entryY=0;entryDx=0;entryDy=5;endFill=0;" edge="1" target="JlKuH1uDhWd5byMlu2DG-43" parent="1" source="JlKuH1uDhWd5byMlu2DG-33">
          <mxGeometry x="0.1905" y="5" relative="1" as="geometry">
            <mxPoint x="500" y="354" as="sourcePoint" />
            <mxPoint as="offset" />
          </mxGeometry>
        </mxCell>
        <mxCell id="JlKuH1uDhWd5byMlu2DG-87" value="&lt;font style=&quot;font-size: 8px;&quot;&gt;GET&lt;/font&gt;&lt;div&gt;&lt;font style=&quot;font-size: 8px;&quot;&gt;3.2 получить&lt;br&gt;данные&lt;/font&gt;&lt;/div&gt;" style="edgeLabel;html=1;align=center;verticalAlign=middle;resizable=0;points=[];" vertex="1" connectable="0" parent="JlKuH1uDhWd5byMlu2DG-41">
          <mxGeometry x="0.4935" y="1" relative="1" as="geometry">
            <mxPoint as="offset" />
          </mxGeometry>
        </mxCell>
        <mxCell id="JlKuH1uDhWd5byMlu2DG-42" value="ответ" style="html=1;verticalAlign=bottom;endArrow=open;dashed=1;endSize=8;curved=0;rounded=0;exitX=0;exitY=1;exitDx=0;exitDy=-5;" edge="1" source="JlKuH1uDhWd5byMlu2DG-43" parent="1" target="JlKuH1uDhWd5byMlu2DG-33">
          <mxGeometry relative="1" as="geometry">
            <mxPoint x="500" y="384" as="targetPoint" />
          </mxGeometry>
        </mxCell>
        <mxCell id="JlKuH1uDhWd5byMlu2DG-43" value="" style="html=1;points=[[0,0,0,0,5],[0,1,0,0,-5],[1,0,0,0,5],[1,1,0,0,-5]];perimeter=orthogonalPerimeter;outlineConnect=0;targetShapes=umlLifeline;portConstraint=eastwest;newEdgeStyle={&quot;curved&quot;:0,&quot;rounded&quot;:0};" vertex="1" parent="1">
          <mxGeometry x="584" y="349" width="10" height="40" as="geometry" />
        </mxCell>
        <mxCell id="JlKuH1uDhWd5byMlu2DG-44" value="" style="html=1;verticalAlign=bottom;endArrow=open;curved=0;rounded=0;entryX=0;entryY=0;entryDx=0;entryDy=5;endFill=0;" edge="1" target="JlKuH1uDhWd5byMlu2DG-46" parent="1" source="JlKuH1uDhWd5byMlu2DG-33">
          <mxGeometry x="0.1905" y="5" relative="1" as="geometry">
            <mxPoint x="620" y="414" as="sourcePoint" />
            <mxPoint as="offset" />
          </mxGeometry>
        </mxCell>
        <mxCell id="JlKuH1uDhWd5byMlu2DG-88" value="&lt;font style=&quot;font-size: 8px;&quot;&gt;GET&lt;/font&gt;&lt;div&gt;&lt;font style=&quot;font-size: 8px;&quot;&gt;3.3 получить&lt;br&gt;данные&lt;/font&gt;&lt;/div&gt;" style="edgeLabel;html=1;align=center;verticalAlign=middle;resizable=0;points=[];" vertex="1" connectable="0" parent="JlKuH1uDhWd5byMlu2DG-44">
          <mxGeometry x="0.5651" y="-1" relative="1" as="geometry">
            <mxPoint x="17" y="-6" as="offset" />
          </mxGeometry>
        </mxCell>
        <mxCell id="JlKuH1uDhWd5byMlu2DG-45" value="ответ" style="html=1;verticalAlign=bottom;endArrow=open;dashed=1;endSize=8;curved=0;rounded=0;exitX=0;exitY=1;exitDx=0;exitDy=-5;" edge="1" source="JlKuH1uDhWd5byMlu2DG-46" parent="1" target="JlKuH1uDhWd5byMlu2DG-33">
          <mxGeometry relative="1" as="geometry">
            <mxPoint x="620" y="444" as="targetPoint" />
          </mxGeometry>
        </mxCell>
        <mxCell id="JlKuH1uDhWd5byMlu2DG-46" value="" style="html=1;points=[[0,0,0,0,5],[0,1,0,0,-5],[1,0,0,0,5],[1,1,0,0,-5]];perimeter=orthogonalPerimeter;outlineConnect=0;targetShapes=umlLifeline;portConstraint=eastwest;newEdgeStyle={&quot;curved&quot;:0,&quot;rounded&quot;:0};" vertex="1" parent="1">
          <mxGeometry x="704" y="409" width="10" height="40" as="geometry" />
        </mxCell>
        <mxCell id="JlKuH1uDhWd5byMlu2DG-48" value="&lt;div&gt;POST&lt;/div&gt;4. Забронировать билет" style="html=1;verticalAlign=bottom;endArrow=block;curved=0;rounded=0;" edge="1" parent="1" target="JlKuH1uDhWd5byMlu2DG-29">
          <mxGeometry x="-0.01" y="1" relative="1" as="geometry">
            <mxPoint x="161" y="551" as="sourcePoint" />
            <mxPoint x="280" y="550.22" as="targetPoint" />
            <mxPoint as="offset" />
          </mxGeometry>
        </mxCell>
        <mxCell id="JlKuH1uDhWd5byMlu2DG-50" value="" style="html=1;points=[[0,0,0,0,5],[0,1,0,0,-5],[1,0,0,0,5],[1,1,0,0,-5]];perimeter=orthogonalPerimeter;outlineConnect=0;targetShapes=umlLifeline;portConstraint=eastwest;newEdgeStyle={&quot;curved&quot;:0,&quot;rounded&quot;:0};" vertex="1" parent="1">
          <mxGeometry x="579" y="570" width="20" height="400" as="geometry" />
        </mxCell>
        <mxCell id="JlKuH1uDhWd5byMlu2DG-61" value="POST&lt;br&gt;5. Забронировать авиабилет" style="html=1;verticalAlign=bottom;endArrow=block;curved=0;rounded=0;" edge="1" parent="1">
          <mxGeometry relative="1" as="geometry">
            <mxPoint x="370" y="590" as="sourcePoint" />
            <mxPoint x="580" y="590" as="targetPoint" />
          </mxGeometry>
        </mxCell>
        <mxCell id="JlKuH1uDhWd5byMlu2DG-74" value="" style="html=1;verticalAlign=bottom;endArrow=block;curved=0;rounded=0;entryX=0;entryY=0;entryDx=0;entryDy=5;" edge="1" parent="1">
          <mxGeometry x="0.1905" y="5" relative="1" as="geometry">
            <mxPoint x="370" y="930" as="sourcePoint" />
            <mxPoint x="579" y="930" as="targetPoint" />
            <mxPoint as="offset" />
          </mxGeometry>
        </mxCell>
        <mxCell id="JlKuH1uDhWd5byMlu2DG-75" value="POST&lt;div&gt;13. Подтверждение оплаты&lt;/div&gt;" style="edgeLabel;html=1;align=center;verticalAlign=middle;resizable=0;points=[];" vertex="1" connectable="0" parent="JlKuH1uDhWd5byMlu2DG-74">
          <mxGeometry x="-0.017" relative="1" as="geometry">
            <mxPoint x="2" y="-20" as="offset" />
          </mxGeometry>
        </mxCell>
        <mxCell id="JlKuH1uDhWd5byMlu2DG-76" value="Передает Авиабилеты" style="html=1;verticalAlign=bottom;endArrow=open;dashed=1;endSize=8;curved=0;rounded=0;" edge="1" parent="1">
          <mxGeometry relative="1" as="geometry">
            <mxPoint x="160" y="960" as="targetPoint" />
            <mxPoint x="350" y="960" as="sourcePoint" />
          </mxGeometry>
        </mxCell>
        <mxCell id="JlKuH1uDhWd5byMlu2DG-78" value="GET" style="text;html=1;align=center;verticalAlign=middle;resizable=0;points=[];autosize=1;strokeColor=none;fillColor=none;" vertex="1" parent="1">
          <mxGeometry x="230" y="150" width="50" height="30" as="geometry" />
        </mxCell>
        <mxCell id="JlKuH1uDhWd5byMlu2DG-79" value="&lt;font style=&quot;font-size: 10px;&quot;&gt;2. Запросить авиабелиты&amp;nbsp;&lt;/font&gt;&lt;div&gt;&lt;font style=&quot;font-size: 10px;&quot;&gt;по парметрам поиска&lt;/font&gt;&lt;/div&gt;" style="html=1;verticalAlign=middle;endArrow=block;curved=0;rounded=0;entryX=0;entryY=0;entryDx=0;entryDy=5;" edge="1" parent="1">
          <mxGeometry x="0.0454" relative="1" as="geometry">
            <mxPoint x="161" y="231" as="sourcePoint" />
            <mxPoint x="350" y="230" as="targetPoint" />
            <mxPoint as="offset" />
          </mxGeometry>
        </mxCell>
        <mxCell id="JlKuH1uDhWd5byMlu2DG-80" value="GET" style="text;html=1;align=center;verticalAlign=middle;resizable=0;points=[];autosize=1;strokeColor=none;fillColor=none;" vertex="1" parent="1">
          <mxGeometry x="230" y="190" width="50" height="30" as="geometry" />
        </mxCell>
        <mxCell id="JlKuH1uDhWd5byMlu2DG-90" value="" style="html=1;points=[[0,0,0,0,5],[0,1,0,0,-5],[1,0,0,0,5],[1,1,0,0,-5]];perimeter=orthogonalPerimeter;outlineConnect=0;targetShapes=umlLifeline;portConstraint=eastwest;newEdgeStyle={&quot;curved&quot;:0,&quot;rounded&quot;:0};" vertex="1" parent="1">
          <mxGeometry x="594" y="600" width="10" height="340" as="geometry" />
        </mxCell>
        <mxCell id="JlKuH1uDhWd5byMlu2DG-91" value="6. Создание брони&amp;nbsp;&lt;div&gt;[T = 15 мин]&lt;/div&gt;" style="html=1;align=left;spacingLeft=2;endArrow=block;rounded=0;edgeStyle=orthogonalEdgeStyle;curved=0;rounded=0;" edge="1" target="JlKuH1uDhWd5byMlu2DG-90" parent="1" source="JlKuH1uDhWd5byMlu2DG-50">
          <mxGeometry x="-0.625" y="15" relative="1" as="geometry">
            <mxPoint x="599" y="560" as="sourcePoint" />
            <Array as="points">
              <mxPoint x="629" y="590" />
              <mxPoint x="629" y="620" />
            </Array>
            <mxPoint x="-4" y="-10" as="offset" />
          </mxGeometry>
        </mxCell>
        <mxCell id="JlKuH1uDhWd5byMlu2DG-94" value="Ответ&lt;br&gt;Инфомрация о брони билета" style="html=1;verticalAlign=middle;endArrow=open;dashed=1;endSize=8;curved=0;rounded=0;exitX=0;exitY=1;exitDx=0;exitDy=-5;" edge="1" parent="1">
          <mxGeometry x="0.0431" y="-20" relative="1" as="geometry">
            <mxPoint x="370" y="640" as="targetPoint" />
            <mxPoint x="579" y="640" as="sourcePoint" />
            <mxPoint as="offset" />
          </mxGeometry>
        </mxCell>
        <mxCell id="JlKuH1uDhWd5byMlu2DG-95" value="&lt;span style=&quot;font-size: 12px; white-space: pre-line;&quot;&gt;Билет забронирван&lt;br/&gt;&amp;nbsp;на 15 минут&lt;/span&gt;" style="html=1;verticalAlign=bottom;endArrow=open;dashed=1;endSize=8;curved=0;rounded=0;align=center;" edge="1" parent="1">
          <mxGeometry x="0.0526" relative="1" as="geometry">
            <mxPoint x="160" y="660" as="targetPoint" />
            <mxPoint x="350" y="660" as="sourcePoint" />
            <mxPoint as="offset" />
          </mxGeometry>
        </mxCell>
        <mxCell id="JlKuH1uDhWd5byMlu2DG-96" value="GET&lt;div&gt;7. Запросить форму для оплаты&lt;/div&gt;" style="html=1;verticalAlign=bottom;endArrow=block;curved=0;rounded=0;" edge="1" parent="1" target="JlKuH1uDhWd5byMlu2DG-97">
          <mxGeometry x="0.5824" relative="1" as="geometry">
            <mxPoint x="370" y="680" as="sourcePoint" />
            <mxPoint x="790" y="680" as="targetPoint" />
            <mxPoint as="offset" />
          </mxGeometry>
        </mxCell>
        <mxCell id="JlKuH1uDhWd5byMlu2DG-98" value="" style="endArrow=none;dashed=1;html=1;rounded=0;" edge="1" parent="1" source="JlKuH1uDhWd5byMlu2DG-103" target="JlKuH1uDhWd5byMlu2DG-97">
          <mxGeometry width="50" height="50" relative="1" as="geometry">
            <mxPoint x="830" y="1190" as="sourcePoint" />
            <mxPoint x="830" y="160" as="targetPoint" />
          </mxGeometry>
        </mxCell>
        <mxCell id="JlKuH1uDhWd5byMlu2DG-97" value="" style="html=1;points=[[0,0,0,0,5],[0,1,0,0,-5],[1,0,0,0,5],[1,1,0,0,-5]];perimeter=orthogonalPerimeter;outlineConnect=0;targetShapes=umlLifeline;portConstraint=eastwest;newEdgeStyle={&quot;curved&quot;:0,&quot;rounded&quot;:0};" vertex="1" parent="1">
          <mxGeometry x="825" y="670" width="10" height="40" as="geometry" />
        </mxCell>
        <mxCell id="JlKuH1uDhWd5byMlu2DG-99" value="Форма для оплаты" style="html=1;verticalAlign=bottom;endArrow=open;dashed=1;endSize=8;curved=0;rounded=0;exitX=0;exitY=1;exitDx=0;exitDy=-5;exitPerimeter=0;" edge="1" parent="1" source="JlKuH1uDhWd5byMlu2DG-97" target="JlKuH1uDhWd5byMlu2DG-29">
          <mxGeometry x="0.4725" relative="1" as="geometry">
            <mxPoint x="370" y="710" as="targetPoint" />
            <mxPoint x="999" y="710" as="sourcePoint" />
            <Array as="points">
              <mxPoint x="480" y="705" />
            </Array>
            <mxPoint as="offset" />
          </mxGeometry>
        </mxCell>
        <mxCell id="JlKuH1uDhWd5byMlu2DG-100" value="&lt;span style=&quot;font-size: 12px; white-space: pre-line;&quot;&gt;Форма для оплаты&lt;/span&gt;" style="html=1;verticalAlign=bottom;endArrow=open;dashed=1;endSize=8;curved=0;rounded=0;align=center;" edge="1" parent="1">
          <mxGeometry x="0.0526" relative="1" as="geometry">
            <mxPoint x="160" y="720" as="targetPoint" />
            <mxPoint x="350" y="720" as="sourcePoint" />
            <mxPoint as="offset" />
          </mxGeometry>
        </mxCell>
        <mxCell id="JlKuH1uDhWd5byMlu2DG-101" value="&lt;div&gt;POST&lt;/div&gt;8. Оплатить авиабилет" style="html=1;verticalAlign=bottom;endArrow=block;curved=0;rounded=0;" edge="1" parent="1">
          <mxGeometry x="-0.01" y="1" relative="1" as="geometry">
            <mxPoint x="160.5" y="760" as="sourcePoint" />
            <mxPoint x="349.5" y="760" as="targetPoint" />
            <mxPoint as="offset" />
          </mxGeometry>
        </mxCell>
        <mxCell id="JlKuH1uDhWd5byMlu2DG-102" value="POST&lt;br&gt;&lt;div&gt;9. Передать данные для оплаты&lt;/div&gt;" style="html=1;verticalAlign=bottom;endArrow=block;curved=0;rounded=0;" edge="1" parent="1">
          <mxGeometry x="0.5824" relative="1" as="geometry">
            <mxPoint x="370" y="780" as="sourcePoint" />
            <mxPoint x="825" y="780" as="targetPoint" />
            <mxPoint as="offset" />
          </mxGeometry>
        </mxCell>
        <mxCell id="JlKuH1uDhWd5byMlu2DG-104" value="" style="endArrow=none;dashed=1;html=1;rounded=0;" edge="1" parent="1" target="JlKuH1uDhWd5byMlu2DG-103">
          <mxGeometry width="50" height="50" relative="1" as="geometry">
            <mxPoint x="830" y="1040" as="sourcePoint" />
            <mxPoint x="830" y="710" as="targetPoint" />
          </mxGeometry>
        </mxCell>
        <mxCell id="JlKuH1uDhWd5byMlu2DG-103" value="" style="html=1;points=[[0,0,0,0,5],[0,1,0,0,-5],[1,0,0,0,5],[1,1,0,0,-5]];perimeter=orthogonalPerimeter;outlineConnect=0;targetShapes=umlLifeline;portConstraint=eastwest;newEdgeStyle={&quot;curved&quot;:0,&quot;rounded&quot;:0};" vertex="1" parent="1">
          <mxGeometry x="825" y="770" width="10" height="110" as="geometry" />
        </mxCell>
        <mxCell id="JlKuH1uDhWd5byMlu2DG-108" value="" style="html=1;points=[[0,0,0,0,5],[0,1,0,0,-5],[1,0,0,0,5],[1,1,0,0,-5]];perimeter=orthogonalPerimeter;outlineConnect=0;targetShapes=umlLifeline;portConstraint=eastwest;newEdgeStyle={&quot;curved&quot;:0,&quot;rounded&quot;:0};" vertex="1" parent="1">
          <mxGeometry x="960" y="785" width="10" height="80" as="geometry" />
        </mxCell>
        <mxCell id="JlKuH1uDhWd5byMlu2DG-109" value="POST&lt;div&gt;10. Передать данные&lt;/div&gt;&lt;div&gt;&amp;nbsp;для оплаты&lt;/div&gt;" style="html=1;verticalAlign=bottom;endArrow=block;curved=0;rounded=0;entryX=0;entryY=0;entryDx=0;entryDy=5;exitX=1.5;exitY=0.182;exitDx=0;exitDy=0;exitPerimeter=0;" edge="1" target="JlKuH1uDhWd5byMlu2DG-108" parent="1" source="JlKuH1uDhWd5byMlu2DG-103">
          <mxGeometry relative="1" as="geometry">
            <mxPoint x="890" y="790" as="sourcePoint" />
          </mxGeometry>
        </mxCell>
        <mxCell id="JlKuH1uDhWd5byMlu2DG-110" value="Оплата подтверждена" style="html=1;verticalAlign=bottom;endArrow=open;dashed=1;endSize=8;curved=0;rounded=0;exitX=0;exitY=1;exitDx=0;exitDy=-5;" edge="1" source="JlKuH1uDhWd5byMlu2DG-108" parent="1" target="JlKuH1uDhWd5byMlu2DG-103">
          <mxGeometry relative="1" as="geometry">
            <mxPoint x="890" y="860" as="targetPoint" />
          </mxGeometry>
        </mxCell>
        <mxCell id="JlKuH1uDhWd5byMlu2DG-112" value="" style="html=1;points=[[0,0,0,0,5],[0,1,0,0,-5],[1,0,0,0,5],[1,1,0,0,-5]];perimeter=orthogonalPerimeter;outlineConnect=0;targetShapes=umlLifeline;portConstraint=eastwest;newEdgeStyle={&quot;curved&quot;:0,&quot;rounded&quot;:0};" vertex="1" parent="1">
          <mxGeometry x="1080" y="797.5" width="10" height="55" as="geometry" />
        </mxCell>
        <mxCell id="JlKuH1uDhWd5byMlu2DG-113" value="&lt;font style=&quot;font-size: 9px;&quot;&gt;GET&lt;/font&gt;&lt;div&gt;&lt;font style=&quot;font-size: 9px;&quot;&gt;11. Запросить&amp;nbsp;&lt;br&gt;денежные средства&lt;/font&gt;&lt;/div&gt;" style="html=1;verticalAlign=bottom;endArrow=block;curved=0;rounded=0;entryX=0;entryY=0;entryDx=0;entryDy=5;" edge="1" target="JlKuH1uDhWd5byMlu2DG-112" parent="1" source="JlKuH1uDhWd5byMlu2DG-108">
          <mxGeometry x="-0.0909" y="3" relative="1" as="geometry">
            <mxPoint x="1010" y="790" as="sourcePoint" />
            <mxPoint y="1" as="offset" />
          </mxGeometry>
        </mxCell>
        <mxCell id="JlKuH1uDhWd5byMlu2DG-114" value="&lt;font style=&quot;font-size: 8px;&quot;&gt;Оплата произведена&lt;/font&gt;" style="html=1;verticalAlign=bottom;endArrow=open;dashed=1;endSize=8;curved=0;rounded=0;exitX=0;exitY=1;exitDx=0;exitDy=-5;" edge="1" source="JlKuH1uDhWd5byMlu2DG-112" parent="1" target="JlKuH1uDhWd5byMlu2DG-108">
          <mxGeometry x="-0.0909" y="3" relative="1" as="geometry">
            <mxPoint x="1010" y="860" as="targetPoint" />
            <mxPoint as="offset" />
          </mxGeometry>
        </mxCell>
        <mxCell id="JlKuH1uDhWd5byMlu2DG-68" value="12. Смс об оплате" style="html=1;verticalAlign=bottom;endArrow=open;endSize=8;curved=0;rounded=0;" edge="1" parent="1">
          <mxGeometry x="0.8043" relative="1" as="geometry">
            <mxPoint x="160" y="890" as="targetPoint" />
            <mxPoint x="1080" y="890" as="sourcePoint" />
            <Array as="points">
              <mxPoint x="660" y="890" />
            </Array>
            <mxPoint as="offset" />
          </mxGeometry>
        </mxCell>
        <mxCell id="JlKuH1uDhWd5byMlu2DG-116" value="Данные об оплате" style="html=1;verticalAlign=bottom;endArrow=open;dashed=1;endSize=8;curved=0;rounded=0;" edge="1" parent="1" source="JlKuH1uDhWd5byMlu2DG-103" target="JlKuH1uDhWd5byMlu2DG-29">
          <mxGeometry x="-0.7143" relative="1" as="geometry">
            <mxPoint x="380" y="865" as="targetPoint" />
            <mxPoint x="815" y="865" as="sourcePoint" />
            <Array as="points">
              <mxPoint x="470" y="865" />
            </Array>
            <mxPoint as="offset" />
          </mxGeometry>
        </mxCell>
        <mxCell id="JlKuH1uDhWd5byMlu2DG-118" value="14. Завершение&lt;div&gt;брони&lt;/div&gt;" style="html=1;align=left;spacingLeft=2;endArrow=block;rounded=0;edgeStyle=orthogonalEdgeStyle;curved=0;rounded=0;" edge="1" parent="1" target="JlKuH1uDhWd5byMlu2DG-50">
          <mxGeometry x="-0.8737" y="20" relative="1" as="geometry">
            <mxPoint x="604" y="930" as="sourcePoint" />
            <Array as="points">
              <mxPoint x="634" y="930" />
              <mxPoint x="634" y="960" />
            </Array>
            <mxPoint x="609" y="960" as="targetPoint" />
            <mxPoint as="offset" />
          </mxGeometry>
        </mxCell>
        <mxCell id="JlKuH1uDhWd5byMlu2DG-119" value="POST&lt;div&gt;15. Данные авиабилета&lt;/div&gt;" style="html=1;verticalAlign=middle;endArrow=open;endSize=8;curved=0;rounded=0;exitX=0;exitY=1;exitDx=0;exitDy=-5;" edge="1" parent="1">
          <mxGeometry x="0.0431" relative="1" as="geometry">
            <mxPoint x="370" y="960" as="targetPoint" />
            <mxPoint x="579" y="960" as="sourcePoint" />
            <mxPoint as="offset" />
          </mxGeometry>
        </mxCell>
        <mxCell id="JlKuH1uDhWd5byMlu2DG-32" value="par" style="shape=umlFrame;whiteSpace=wrap;html=1;pointerEvents=0;" vertex="1" parent="1">
          <mxGeometry x="280" y="269" width="490" height="200" as="geometry" />
        </mxCell>
      </root>
    </mxGraphModel>
  </diagram>
</mxfile>
